<?xml version="1.0" encoding="UTF-8"?>
<svg version="1.1" xmlns="http://www.w3.org/2000/svg" width="180" height="100">
<path d="M0 0 C59.4 0 118.8 0 180 0 C180 49.5 180 99 180 150 C120.6 150 61.2 150 0 150 C0 100.5 0 51 0 0 Z " fill="#FFFFFF" transform="translate(0,0)"/>
<path d="M0 0 C59.4 0 118.8 0 180 0 C180 24.09 180 48.18 180 73 C149.64 73 119.28 73 88 73 C87.67 75.97 87.34 78.94 87 82 C86.66434489 83.59333127 86.29007092 85.18015425 85.84375 86.74609375 C85.51697266 87.9072168 85.51697266 87.9072168 85.18359375 89.09179688 C84.95800781 89.86587891 84.73242188 90.63996094 84.5 91.4375 C84.27441406 92.23865234 84.04882812 93.03980469 83.81640625 93.86523438 C82.16149401 99.67701199 82.16149401 99.67701199 81 102 C80.34 102 79.68 102 79 102 C79.2865954 99.22856153 79.5791901 96.45795843 79.875 93.6875 C79.95363281 92.92115234 80.03226562 92.15480469 80.11328125 91.36523438 C80.78025454 85.18290504 81.82393 79.10474126 83 73 C81.23124512 73.01571045 81.23124512 73.01571045 79.42675781 73.03173828 C74.99856676 73.06828731 70.57038869 73.09102587 66.14208984 73.10986328 C64.23549142 73.1198421 62.32890798 73.13342996 60.42236328 73.15087891 C40.11122115 73.3319431 40.11122115 73.3319431 30 71 C29.9175 72.216875 29.835 73.43375 29.75 74.6875 C29.04901255 81.04645759 27.00856956 86.95197387 25 93 C24.69320313 93.93457031 24.38640625 94.86914062 24.0703125 95.83203125 C23.38936951 97.89107316 22.69624361 99.94608136 22 102 C21.67 102 21.34 102 21 102 C20.69641548 94.39562942 21.59468473 87.33836351 23 79.875 C23.19078125 78.823125 23.3815625 77.77125 23.578125 76.6875 C24.04431283 74.12346691 24.51837947 71.56117085 25 69 C24.10921753 68.83346924 24.10921753 68.83346924 23.20043945 68.66357422 C15.23481342 67.0573202 8.14715875 63.53293226 3 57 C-4.4948258 39.51207313 0 19.02629759 0 0 Z " fill="#FDF406" transform="translate(0,0)"/>
<path d="M0 0 C16.17 0 32.34 0 49 0 C49 13.2 49 26.4 49 40 C47.96197495 37.92394991 46.93244645 35.84047595 46.02734375 33.703125 C42.84781689 26.54634052 38.15019684 20.57509842 31 17 C30.61714844 17.84304687 30.61714844 17.84304687 30.2265625 18.703125 C28.84307219 21.29386482 27.20061417 23.45107845 25.375 25.75 C24.74335938 26.54921875 24.11171875 27.3484375 23.4609375 28.171875 C22.97882813 28.77515625 22.49671875 29.3784375 22 30 C22.721875 30.556875 23.44375 31.11375 24.1875 31.6875 C29.72217085 36.23822936 33.7950192 40.59003839 37 47 C37 50.63 37 54.26 37 58 C11.92 58 -13.16 58 -39 58 C-34.82638889 35.74074074 -34.82638889 35.74074074 -29.9375 31 C-23.86059467 27.86353273 -17.08239845 28.18958755 -10.59765625 29.89453125 C-8.40219969 30.60623137 -6.21601648 31.34756181 -4.04296875 32.125 C-0.7940181 33.05922971 1.64197263 33.40859913 5 33 C8.05790895 30.39011027 9.64724172 26.71471199 10.44921875 22.81640625 C10.81246791 15.78941391 8.41936814 8.84631546 3.875 3.5 C2.946875 2.7575 2.946875 2.7575 2 2 C1.34 1.34 0.68 0.68 0 0 Z " fill="#FFFFFF" transform="translate(131,0)"/>
<path d="M0 0 C17.82 0 35.64 0 54 0 C50 3 50 3 47.95703125 4.4375 C42.4425306 8.45535111 38.32248984 12.94471301 34.12890625 18.3125 C32.28142409 20.64473436 30.35681486 22.78086015 28.3125 24.9375 C21.13311473 33.16630817 18.3177209 42.42587248 16.54296875 52.9453125 C16 56 16 56 15 58 C9.66554076 58.04994812 4.33122175 58.08597541 -1.00341797 58.10986328 C-2.81301245 58.11983616 -4.62259118 58.13341932 -6.43212891 58.15087891 C-31.23212832 58.38393584 -31.23212832 58.38393584 -38 55 C-37.57293819 52.47700364 -37.13370614 49.95712176 -36.6875 47.4375 C-36.51057617 46.38079102 -36.51057617 46.38079102 -36.33007812 45.30273438 C-35.46585702 40.49411948 -34.25801176 36.35120515 -32 32 C-23.1601457 26.92526883 -13.15290169 28.24712825 -3.66552734 30.79492188 C-0.09278428 31.81148168 3.45626415 32.88636808 7 34 C10.3540692 24.25722757 11.30474468 17.81274302 7.1484375 8.203125 C5.79544934 5.60759669 4.28409215 3.82727372 2 2 C1.34 1.34 0.68 0.68 0 0 Z " fill="#FFFFFF" transform="translate(72,0)"/>
<path d="M0 0 C8.62567071 3.99585636 13.58432593 10.24825142 17 19 C19.99236501 30.96946005 18 43.66216298 18 56 C-12.03 56 -42.06 56 -73 56 C-72 47 -72 47 -70 41 C-44.92 41 -19.84 41 6 41 C5.02658614 29.14236897 5.02658614 29.14236897 -1 20 C-3.8449382 17.67864163 -6.78071232 15.75987727 -10 14 C-6.86427316 9.17580486 -3.4851448 4.57715684 0 0 Z " fill="#099243" transform="translate(162,17)"/>
<path d="M0 0 C22.11 0 44.22 0 67 0 C65.68 0.99 64.36 1.98 63 3 C61.700625 4.0828125 61.700625 4.0828125 60.375 5.1875 C58 7 58 7 56 7 C56 7.66 56 8.32 56 9 C54.37365662 10.70603715 52.69781103 12.36507086 51 14 C49.13043086 15.94647341 47.27673091 17.90056904 45.4375 19.875 C44.96892578 20.36613281 44.50035156 20.85726563 44.01757812 21.36328125 C35.97907126 30.0201348 31.42163552 41.55226847 29 53 C22.95639604 53.45833328 19.59873442 50.5949062 15 47 C11.76760221 44.00411912 11.10310141 42.61860848 10.375 38.25 C10.63965623 32.85508455 13.85319551 29.16759716 17 25 C17.80060193 23.81850564 18.59374 22.6318723 19.375 21.4375 C19.91125 20.633125 20.4475 19.82875 21 19 C14.63629758 20.27274048 10.9967736 24.16266783 7 29 C5.11189894 31.90586838 3.51103264 34.88422727 2 38 C1.34 39.32 0.68 40.64 0 42 C0 28.14 0 14.28 0 0 Z " fill="#FFFFFF" transform="translate(0,0)"/>
<path d="M0 0 C5.72725053 4.12894806 8.21154555 10.57589446 9.421875 17.3671875 C9.79770147 23.40129026 7.64854382 27.31072401 4 32 C3 33 3 33 0.32421875 33.1875 C-3.21193961 32.98804571 -5.86141638 32.1899529 -9.1875 31 C-16.55971298 28.63516912 -22.92004242 27.8872843 -30.4375 29.9375 C-37.60543648 35.70681472 -38.57529998 46.8809786 -40.43572998 55.44137573 C-40.9441712 57.78069391 -41.4638906 60.11724902 -41.98681641 62.45336914 C-42.6784976 65.54577854 -43.36658527 68.63894424 -44.05126953 71.73291016 C-45.28805575 77.3100047 -46.56685049 82.87672508 -47.875 88.4375 C-48.06570068 89.26926758 -48.25640137 90.10103516 -48.45288086 90.95800781 C-49.29414215 94.52717973 -50.12099317 97.82600197 -52 101 C-52.66 101 -53.32 101 -54 101 C-52.90898209 89.11364698 -51.16340505 77.52768312 -48.62255859 65.86474609 C-48.17814707 63.81975595 -47.74186549 61.77299207 -47.31103516 59.72509766 C-46.57800759 56.25045863 -45.82299572 52.78122178 -45.0625 49.3125 C-44.83401367 48.22582031 -44.60552734 47.13914063 -44.37011719 46.01953125 C-42.2379419 36.54058966 -38.65610497 29.43734265 -32.08203125 22.3046875 C-30.45884363 20.50791322 -28.91451172 18.69600781 -27.38671875 16.8203125 C-11.22940773 -2.9551073 -11.22940773 -2.9551073 0 0 Z " fill="#FDF408" transform="translate(133,1)"/>
<path d="M0 0 C1.26855835 0.20568604 1.26855835 0.20568604 2.56274414 0.41552734 C13.52533624 2.04920293 24.36692313 2.42868054 35.4375 2.625 C37.2480632 2.66329819 39.0586105 2.70235616 40.86914062 2.7421875 C45.24596039 2.8368571 49.62286445 2.9213401 54 3 C53.86722656 3.58007812 53.73445313 4.16015625 53.59765625 4.7578125 C52.60295999 9.15770982 51.68631668 13.53894158 51 18 C45.2382937 18.04989487 39.47671658 18.08595113 33.71484375 18.10986328 C31.7597433 18.11984485 29.80465748 18.13343487 27.84960938 18.15087891 C7.01657633 18.3319431 7.01657633 18.3319431 -3 16 C-1.06640625 5.30078125 -1.06640625 5.30078125 0 0 Z " fill="#099342" transform="translate(33,55)"/>
<path d="M0 0 C0.763125 0.061875 1.52625 0.12375 2.3125 0.1875 C0.92888131 4.61507981 -1.52992262 7.81485215 -4.34765625 11.41796875 C-6.73551133 14.57160826 -7.10496425 17.12786954 -7.01171875 21.1015625 C-6.43644642 24.80271218 -4.51619355 26.95810593 -1.6875 29.1875 C1.88988365 31.37814504 5.55235332 33.33047485 9.3125 35.1875 C9.16987588 36.7502962 9.02324489 38.31272696 8.875 39.875 C8.79378906 40.74511719 8.71257813 41.61523438 8.62890625 42.51171875 C8.3216178 45.11039271 7.86087616 47.62994733 7.3125 50.1875 C-1.77839299 49.08672381 -9.88043622 45.55800403 -15.6875 38.1875 C-18.87163476 32.27410687 -19.6894692 27.25549495 -18.1015625 20.80859375 C-15.61694791 13.5257097 -11.05003119 8.56978269 -5.6875 3.1875 C-5.15640625 2.60226563 -4.6253125 2.01703125 -4.078125 1.4140625 C-2.6875 0.1875 -2.6875 0.1875 0 0 Z " fill="#089141" transform="translate(18.6875,18.8125)"/>
</svg>
