<?xml version="1.0" encoding="UTF-8"?>
<!-- Uploaded to: SVG Find, www.svgrepo.com, Generator: SVG Find Mixer Tools -->
<svg fill="#000000" width="800px" height="800px" version="1.1" viewBox="144 144 512 512" xmlns="http://www.w3.org/2000/svg">
 <g>
  <path d="m381.45 271.41c-0.91797-2.7109-3.8633-4.1602-6.5664-3.2344-0.39844 0.13672-0.70312 0.39062-1.043 0.60547-36.551 11.602-32.641 9.9336-34.469 11.195-1.5742 1.2148-2.6172 3.168-2.2266 5.2617l4.7578 25.449-18.949 19.246-27.703-17.516c-2.418-1.5352-5.6133-0.80078-7.1367 1.6094-0.42969 0.67578-0.64062 1.4141-0.72656 2.1602-7.8203 11.266-13.391 22.551-20.234 32.043-1.8867 2.6172-0.60156 6.3789 1.4883 7.7422l26.812 17.512c-0.0625 0.72266 0.23828-2.668-1.9648 22.551-8.0273 5.2539-17.027 9.2383-26.359 11.633-3.5977-0.70703-6.8047 2.4375-6.1094 6.0547l6.8828 35.984c0.39062 2.043 1.9531 3.5117 3.8516 3.9844 2.7695 1.418 1.8086 0.50781 30.828-4.2422 6.2852 6.875 10.488 10.887 16.621 17.562l-12.918 26.449c-2.7695 2.3555-2.25 5.8203 0.28125 8.082 0.015625 0.011719 0.019532 0.027343 0.035156 0.039062 0.027344 0.019531 0.054688 0.035157 0.082032 0.050781 0.32031 0.26953 0.60547 0.57031 0.99609 0.76172 2.7305 1.3438 14.66 10.586 35.215 16.363 1.5508 0.44141 3.2461 0.13672 4.6211-0.95703 0.90625-0.34766 1.7461-0.86328 2.3555-1.7031 6.1133-8.4414 11.965-17.215 17.523-26.078 11.77 2.9609 10.52 2.6836 21.965 5.5586l10.219 26.23c0.80078 2.043 2.7578 3.2969 4.8242 3.2969 0.96484 0 1.2383-0.17969 1.9375-0.38672 16.172-3.3047 22.484-3.832 34.91-8.3086 2.6875-0.96875 4.0859-3.9375 3.1211-6.625-0.070313-0.19141-0.21875-0.32812-0.30859-0.50781l-2.668-26.75c7.375-4.8281 12.352-8.8945 20.652-15.125 19.449 9.2734 23.914 11.621 25.484 11.621 1.8867 0 3.6836-1.0469 4.5977-2.8242 10.547-12.059 18.309-26.438 19.254-29.371 1.0039-2.5156-0.042968-5.4023-2.5195-6.5781-0.058593-0.027344-0.12109-0.019531-0.18359-0.046875-7.2695-7.207-15.109-13.867-23.332-19.965 3.6836-7.625 5.9375-14.531 6.7578-20.844 10.051-2.5117 19.836-6.0195 29.105-10.578 2.9297-1.4414 4.0586-5.4727 1.3633-8.2266-3.6211-11.609-7.9922-23.078-13.035-34.086-0.85156-1.8672-2.5664-3.0273-5.3711-3.0273-6.9844 0-16.602 0.91406-26.453 2.9531l-9.9766-15.781c7.5547-14.371 8.7891-24.895 9.6797-28.363 1.9805-2.6055 1.0664-5.8594-1.2305-7.375-11.074-7.3398-23.062-13.285-35.625-17.672-0.29297-0.10156-0.58984-0.074219-0.88672-0.12109-1.9609-0.73047-4.2422-0.25391-5.6992 1.4141-6.5977 7.5742-12.379 15.84-17.309 24.562-8.4414-3.2617-17.434-5.293-26.488-5.9961zm40.129 41.859c0.99609-0.45312 1.8867-1.1211 2.4414-2.1641 4.375-8.2109 9.6445-15.957 15.609-23.145 9.582 3.5391 18.77 8.0586 27.426 13.457-1.6758 9.1484-4.7852 17.922-9.3047 26.09-0.82031 1.4844-0.75391 3.1602-0.10938 4.5977-0.17578 3.2578 1.0898 2.9141 13.035 22.543 1.0078 1.6016 2.8398 2.6523 5.1484 2.3047 3.0781 0.37891 8.1328-2.3867 25.645-2.9531 3.9805 8.9922 7.5195 18.246 10.523 27.641-7.3984 3.293-15.098 5.9258-22.988 7.8594-3.7266-1.2383-6.7383 1.6328-6.7773 4.7852-0.085937 7.082-2.75 15.422-8.1562 25.488-1.3477 2.5195-0.40625 5.6562 2.1172 7.0078 0.35156 0.19141 0.73438 0.17969 1.1094 0.27734 8.0508 5.8242 15.656 12.312 22.777 19.254-3.9023 7.4922-8.6133 14.543-14.062 21.059l-22.5-10.75c-2.125-1.0156-4.5391-0.39062-6.0312 1.2812-0.71484 0.53516 2.3984-1.8945-7.6758 5.7891-5.25 4.0117-9.5469 7.2617-15.02 10.785-2.5156 0.56641-4.3008 2.8477-4.0391 5.4766l2.8047 28.105c-8.418 2.6953-14.457 3.5742-25.926 5.8477l-8.4961-21.812c0.32031-2.4609-1.1211-4.793-3.5195-5.5469-0.34375-0.1875-28.992-7.3984-29.371-7.4922-2.2617-0.57813-4.5156 0.51953-5.6484 2.4648-2.7344 4.2461-7.6172 12.43-17.621 26.387-9.3086-2.8828-18.105-6.9609-26.273-12.152l13.719-28.09c1.2539-2.5664 0.1875-5.668-2.3789-6.9219-0.22656-0.10938-0.46484-0.10547-0.69922-0.17969-6.6328-7.2617-11.957-12.367-17.855-18.902-0.85156-1.7969-2.6328-2.9062-4.6367-2.9219-0.023438 0-0.046875 0-0.070312-0.003906-1.8438 0.007813-7.1094 1.1602-27.547 4.6172l-5.043-26.355c10.516-2.9961 20.652-7.6797 29.531-13.902 1.7852-1.25 2.5156-3.4219 2.043-5.4258 2.4414-27.961 2.6797-26.777 1.5156-28.781-1.1484-3.2422-1.8281-2.0195-26.859-18.891 6.7617-10.211 9.6641-16.16 16.086-25.805l24.598 15.559c2.0195 3.0625 5.8008 2.9688 7.9141 0.82812 22.676-23.645 23.688-22.719 24.148-26.094 0.96875-1.1484 1.4922-2.6562 1.1953-4.2461l-4.2109-22.527 25.223-7.9219 7.25 21.324c-0.039063 0.23047-0.14844 0.4375-0.15625 0.67578-0.082032 2.8594 2.1719 5.2422 5.0273 5.3242 10.535 0.30469 21.191 2.6875 30.809 6.9023 1.7305 0.75781 3.6797 0.53906 5.2812-0.74609z"/>
  <path d="m356.2 344c-0.035156 0.019531-0.050781 0.054687-0.085937 0.074218-0.035157 0.023438-0.074219 0.023438-0.10938 0.046876-28.176 18.793-37.586 61.633-13.434 90.184 0.69141 0.52344 18.082 23.555 49.707 23.555 29.238 0 56.555-22.672 62.027-51.039 5.7578-29.918-10.168-60.953-42.777-71.211-22.539-5.418-37.426-3.25-54.328 7.7773-0.23828 0.11719-0.70312 0.40625-1 0.61328zm52.555 1.5859c13.891 4.375 25.188 13.879 30.996 26.07 16.996 35.73-9.0898 72.988-43.875 75.723-16.68 1.3125-34.09-6.2891-45.371-19.715-0.003906-0.003906-0.007812-0.003906-0.011718-0.007812 0 0 0-0.003906-0.003906-0.003906-20.168-23.828-11.914-59.453 11.254-74.914 15.84-10.57 28.277-11.664 47.012-7.1523z"/>
  <path d="m530.17 230.03 11.277-34.898c0.875-2.7227-0.61328-5.6406-3.3359-6.5156-2.7422-0.87109-5.6328 0.62109-6.5156 3.3359l-11.277 34.898c-0.875 2.7148 0.61328 5.6328 3.3359 6.5156 2.7305 0.875 5.6406-0.625 6.5156-3.3359z"/>
  <path d="m583.6 220.26-28.238 26.023c-3.4844 3.2148-1.1602 8.9844 3.5039 8.9844 3.6445 0 2.5938-1.2031 31.746-27.391 2.1016-1.9414 2.2383-5.2109 0.30469-7.3125-1.9453-2.1094-5.2188-2.2383-7.3164-0.30469z"/>
  <path d="m615.52 269.39c-5.9531 3.6992-24.938 8.3359-32.578 8.9219-2.8516 0.22266-4.9805 2.7109-4.7656 5.5586 0.20312 2.6602 2.4336 4.9219 5.5586 4.7656 8.1953-0.63281 29.082-5.3711 37.258-10.461 2.4258-1.5078 3.168-4.7031 1.6562-7.1289-1.5039-2.418-4.6758-3.1719-7.1289-1.6562z"/>
  <path d="m394.03 202.31c-77.582-0.5-163.41 42.25-197.36 112.01-33.953 69.762-24.215 158.62 24.043 219.38 48.258 60.75 132.62 90.34 208.25 73.047 61.25-14.004 114.27-58.195 141.3-114.69 71.957-132.67-31.879-289.08-176.04-289.67zm141.11 75.008c41.914 47.246 57.301 108.66 42.219 168.5-19.359 76.805-90.758 136.49-169.77 141.93-78.922 5.4258-157.91-43.922-187.59-117.37-29.676-73.438-7.2266-163.75 53.379-214.74 72.566-61.062 189.93-59.281 261.76 21.688z"/>
 </g>
</svg>